<?xml version="1.0" standalone="no"?>
<!DOCTYPE svg PUBLIC "-//W3C//DTD SVG 20010904//EN"
 "http://www.w3.org/TR/2001/REC-SVG-20010904/DTD/svg10.dtd">
<svg version="1.0" xmlns="http://www.w3.org/2000/svg"
 width="300.000000pt" height="300.000000pt" viewBox="0 0 300.000000 300.000000"
 preserveAspectRatio="xMidYMid meet">
<metadata>
Created by potrace 1.10, written by Peter Selinger 2001-2011
</metadata>
<g transform="translate(0.000000,300.000000) scale(0.100000,-0.100000)"
fill="#000000" stroke="none">
<path d="M1694 2133 c-61 -20 -87 -36 -114 -67 -45 -51 -68 -98 -75 -147 -8
-59 -18 -67 -47 -39 -43 40 -119 70 -172 69 l-51 -1 50 -8 c70 -11 105 -26
144 -63 119 -113 81 -308 -70 -365 l-51 -19 35 -20 c46 -27 90 -94 136 -204
21 -49 39 -91 42 -93 2 -2 3 135 1 306 -4 410 9 489 92 570 62 61 184 76 244
31 55 -41 67 -69 67 -151 -1 -102 -34 -170 -130 -269 -39 -40 -69 -73 -67 -73
2 0 32 15 65 33 82 43 161 122 193 192 31 66 25 86 -6 25 -16 -32 -25 -39 -33
-31 -8 8 -8 19 -1 39 19 49 10 165 -15 205 -44 71 -154 108 -237 80z m-201
-685 c4 -75 2 -98 -8 -98 -7 0 -18 14 -25 31 -7 17 -18 36 -24 42 -7 7 -19 23
-29 37 -16 24 -16 25 26 61 23 21 45 35 48 31 4 -4 9 -51 12 -104z"/>
<path d="M1684 2056 c-38 -17 -87 -75 -104 -124 -17 -51 -27 -372 -11 -372 36
0 132 60 191 120 175 174 174 391 -2 390 -24 -1 -57 -7 -74 -14z m121 -32 c63
-29 70 -105 21 -206 -14 -29 -41 -69 -58 -89 -39 -44 -137 -119 -155 -119 -16
0 -15 -3 -14 144 1 136 16 199 59 238 55 51 91 59 147 32z"/>
<path d="M1230 1927 c0 -3 25 -11 55 -17 30 -6 55 -15 55 -20 0 -6 -11 -5 -26
0 -60 23 -161 3 -215 -42 -27 -23 -76 -102 -83 -133 -3 -16 -7 -52 -8 -78 -1
-44 -4 -49 -35 -62 -45 -19 -98 -60 -119 -93 -16 -26 -15 -26 17 4 62 58 113
76 239 86 188 15 199 17 231 46 78 70 25 194 -89 209 -92 12 -159 -65 -150
-172 4 -45 2 -54 -13 -58 -25 -7 -32 22 -24 92 13 115 74 176 176 176 128 0
212 -121 159 -229 -35 -72 -75 -87 -257 -89 -173 -2 -204 -13 -290 -97 -58
-57 -79 -116 -71 -202 6 -61 31 -96 88 -125 79 -41 160 -25 218 43 33 39 62
116 62 166 0 32 12 36 38 10 27 -27 124 -211 117 -222 -3 -6 -2 -10 4 -10 5 0
13 -9 16 -20 10 -32 115 -140 170 -175 92 -59 209 -79 299 -53 40 12 134 93
122 105 -3 3 -1 14 5 25 17 32 12 148 -10 211 -11 31 -16 57 -10 57 5 0 12 -7
15 -15 4 -8 10 -12 15 -10 4 3 22 -19 40 -50 36 -64 46 -71 24 -17 -20 45 -38
74 -84 131 -38 47 -162 154 -169 146 -2 -2 14 -26 38 -52 64 -73 122 -201 128
-283 6 -91 -3 -134 -39 -175 -43 -48 -103 -69 -186 -63 -151 11 -295 138 -387
342 -50 111 -142 246 -168 246 -6 0 -8 -14 -4 -34 9 -46 -10 -159 -34 -206
-32 -62 -73 -90 -133 -90 -186 0 -206 249 -28 340 56 28 106 38 246 49 143 11
183 21 233 59 58 42 74 78 70 154 -3 57 -8 73 -34 105 -40 49 -100 82 -163 90
-28 3 -51 3 -51 0z m87 -171 c35 -41 31 -89 -9 -117 -35 -25 -142 -39 -160
-21 -5 5 -10 34 -10 62 1 44 6 58 29 82 25 27 33 29 77 25 38 -3 55 -11 73
-31z m-275 -89 c-5 -89 -17 -96 -13 -9 2 54 9 97 16 90 1 -2 0 -38 -3 -81z"/>
<path d="M2020 1856 c0 -7 -16 -45 -35 -84 -60 -120 -167 -201 -298 -225 l-58
-11 88 -41 c142 -67 237 -168 289 -308 13 -34 23 -56 23 -48 1 23 -42 151 -51
151 -4 0 -8 5 -8 12 0 6 -11 26 -25 44 -14 18 -25 36 -25 41 -1 9 -70 62 -139
106 l-44 29 69 34 c105 53 176 130 204 224 16 55 23 90 15 90 -3 0 -5 -6 -5
-14z"/>
<path d="M1558 1303 c-4 -259 -9 -269 -75 -128 -121 258 -149 291 -259 302
l-59 6 36 -40 c20 -21 60 -82 89 -134 162 -288 259 -386 396 -397 176 -15 236
131 139 333 -38 80 -119 190 -161 221 -30 21 -89 54 -98 54 -3 0 -7 -98 -8
-217z m115 113 c62 -62 133 -171 157 -238 60 -171 -13 -269 -177 -238 -34 7
-63 16 -63 21 0 5 -5 9 -11 9 -17 0 -105 92 -127 133 -11 20 -22 34 -26 30 -5
-6 -9 13 -3 20 1 1 -8 14 -21 27 -32 34 -132 222 -131 246 0 11 3 13 6 7 2 -7
10 -13 17 -13 15 0 66 -52 66 -67 0 -6 3 -13 8 -15 4 -1 35 -60 69 -130 67
-137 92 -164 123 -132 15 16 19 44 25 174 6 139 10 200 14 208 6 12 37 -6 74
-42z"/>
<path d="M1023 1470 c-92 -19 -176 -87 -188 -154 -20 -104 65 -173 140 -114
43 34 65 92 65 176 0 46 4 72 11 72 8 0 10 -26 7 -83 -6 -117 -37 -170 -118
-201 -8 -4 3 -4 25 -1 49 5 89 46 106 107 15 54 18 200 4 203 -5 2 -29 -1 -52
-5z m-3 -95 c0 -59 -16 -104 -47 -136 -33 -33 -52 -36 -83 -11 -30 24 -34 80
-8 121 23 36 82 71 116 68 19 -1 22 -7 22 -42z"/>
<path d="M1319 1055 c11 -22 33 -54 48 -71 28 -31 131 -104 146 -104 5 0 -20
19 -55 43 -57 39 -83 67 -141 147 -14 20 -14 17 2 -15z"/>
</g>
</svg>
